<?xml version="1.0" encoding="UTF-8"?>
<svg version="1.1" xmlns="http://www.w3.org/2000/svg" width="650" height="268">
<path d="M0 0 C214.5 0 429 0 650 0 C650 88.44 650 176.88 650 268 C435.5 268 221 268 0 268 C0 179.56 0 91.12 0 0 Z " fill="#F6F7F7" transform="translate(0,0)"/>
<path d="M0 0 C0.33 0 0.66 0 1 0 C-0.37601727 18.92023746 -6.5415013 39.08300259 -15 56 C-15.60521484 57.33417969 -15.60521484 57.33417969 -16.22265625 58.6953125 C-23.37198106 73.99445072 -33.55608798 87.66209282 -45 100 C-45.89332031 100.96421875 -46.78664062 101.9284375 -47.70703125 102.921875 C-61.12815736 116.83425756 -78.03081142 129.62134768 -96 137 C-96.99 137 -97.98 137 -99 137 C-96.14375196 121.60482305 -96.14375196 121.60482305 -90.12890625 116.62109375 C-86.80803862 114.62231477 -83.43262532 112.79880834 -80 111 C-41.47523855 86.64129433 -11.53556858 43.97935523 0 0 Z " fill="#27AFCA" transform="translate(191,58)"/>
<path d="M0 0 C1.23235855 3.69707564 0.63079977 4.56291515 -0.84375 8.0859375 C-1.26205078 9.09277588 -1.68035156 10.09961426 -2.11132812 11.13696289 C-2.56958984 12.20551514 -3.02785156 13.27406738 -3.5 14.375 C-3.96341797 15.46611084 -4.42683594 16.55722168 -4.90429688 17.68139648 C-22.87764387 59.48937093 -56.21598999 95.91098451 -99 113 C-100.26084571 113.52762172 -101.52122717 114.05635365 -102.78125 114.5859375 C-104.1244178 115.14203332 -105.46816609 115.69672916 -106.8125 116.25 C-107.74703003 116.63841064 -107.74703003 116.63841064 -108.70043945 117.03466797 C-112.45061447 118.54158301 -115.99308408 119.48456212 -120 120 C-113.05454027 102.21693885 -113.05454027 102.21693885 -106.21875 98.8125 C-102.60599929 97.29123107 -98.89659482 96.04995204 -95.18408203 94.79638672 C-79.37741142 89.03276504 -64.56429189 77.90449296 -52 67 C-51.17113281 66.28199219 -50.34226562 65.56398438 -49.48828125 64.82421875 C-28.65264283 46.40904696 -12.39948103 24.91271877 0 0 Z " fill="#2768AA" transform="translate(190,54)"/>
<path d="M0 0 C0.33 0 0.66 0 1 0 C1.71323227 37.6031902 -6.35678858 70.75803919 -26 103 C-26.52980469 103.89976562 -27.05960938 104.79953125 -27.60546875 105.7265625 C-32.89427496 114.44492713 -39.35391003 122.38198309 -46.5859375 129.5703125 C-49.02498535 131.92771336 -49.02498535 131.92771336 -50.96484375 134.5234375 C-53.25598431 137.3115049 -55.7357094 139.38664337 -58.5625 141.625 C-62.2777253 144.54550453 -62.2777253 144.54550453 -65.71484375 147.7734375 C-67 149 -67 149 -69 149 C-68.9280591 130.6370847 -68.9280591 130.6370847 -64.51171875 125.57421875 C-61.5572894 122.78120449 -58.25338786 120.42999957 -55 118 C-22.8263167 86.08005237 -8.05808555 43.45417276 0 0 Z " fill="#35CACE" transform="translate(193,63)"/>
<path d="M0 0 C0 4.91603811 -3.21706463 8.08128249 -6 12 C-6.38623535 12.55300781 -6.7724707 13.10601562 -7.17041016 13.67578125 C-13.79479685 23.13698232 -20.96780355 31.70760564 -29 40 C-30.06347656 41.12341797 -30.06347656 41.12341797 -31.1484375 42.26953125 C-36.36591926 47.66802768 -42.08014305 52.39192953 -48 57 C-48.721875 57.56203125 -49.44375 58.1240625 -50.1875 58.703125 C-70.93709576 73.96889903 -102.39398166 92 -129 92 C-127.27737163 88.12646549 -124.83860539 84.81450405 -122.3125 81.4375 C-121.90322266 80.86064453 -121.49394531 80.28378906 -121.07226562 79.68945312 C-116.54024152 73.65371596 -110.76805199 72.08332569 -103.625 70.25 C-73.75928715 61.86110917 -45.93609563 44.6521305 -23.55078125 23.375 C-21 21 -21 21 -18.37109375 18.91796875 C-16.20602303 17.16665125 -14.52222349 15.44722375 -12.75 13.3125 C-8.74804244 8.62146366 -4.40247956 4.31263304 0 0 Z " fill="#284C9D" transform="translate(186,57)"/>
<path d="M0 0 C3.0816964 1.36964285 4.57570471 2.29284118 6.3125 5.1875 C6.539375 5.785625 6.76625 6.38375 7 7 C7.66 7 8.32 7 9 7 C9.3403125 6.1028125 9.3403125 6.1028125 9.6875 5.1875 C11.42429529 2.29284118 12.9183036 1.36964285 16 0 C21.00573632 -0.53632889 24.00517999 -0.10708223 28 3 C31.37309542 6.48223244 31.35331978 9.20551072 31.29296875 13.953125 C31.28872391 14.61334656 31.28447906 15.27356812 31.28010559 15.95379639 C31.26337435 18.05295391 31.22573551 20.15113496 31.1875 22.25 C31.17244584 23.67706942 31.15875871 25.10415396 31.14648438 26.53125 C31.11349001 30.02114817 31.06174743 33.5104787 31 37 C27.7 37 24.4 37 21 37 C21 28.42 21 19.84 21 11 C18.03 11 15.06 11 12 11 C9.80835056 14.28747416 9.71320614 15.48494825 9.5859375 19.32421875 C9.54726563 20.35224609 9.50859375 21.38027344 9.46875 22.43945312 C9.4378125 23.51130859 9.406875 24.58316406 9.375 25.6875 C9.33632813 26.77095703 9.29765625 27.85441406 9.2578125 28.97070312 C9.16349884 31.64685334 9.08065874 34.32340342 9 37 C5.7 37 2.4 37 -1 37 C-1.02505615 36.28344238 -1.0501123 35.56688477 -1.07592773 34.82861328 C-1.19169751 31.59388486 -1.31450969 28.35946159 -1.4375 25.125 C-1.47681641 23.99707031 -1.51613281 22.86914062 -1.55664062 21.70703125 C-1.59853516 20.63066406 -1.64042969 19.55429688 -1.68359375 18.4453125 C-1.72025146 17.45031738 -1.75690918 16.45532227 -1.79467773 15.43017578 C-1.84959532 12.99220499 -1.84959532 12.99220499 -3 11 C-4.27875 10.938125 -5.5575 10.87625 -6.875 10.8125 C-7.59429687 10.77769531 -8.31359375 10.74289063 -9.0546875 10.70703125 C-10.01761719 10.85205078 -10.01761719 10.85205078 -11 11 C-13.19164944 14.28747416 -13.28679386 15.48494825 -13.4140625 19.32421875 C-13.47207031 20.86625977 -13.47207031 20.86625977 -13.53125 22.43945312 C-13.5621875 23.51130859 -13.593125 24.58316406 -13.625 25.6875 C-13.68300781 27.31268555 -13.68300781 27.31268555 -13.7421875 28.97070312 C-13.83650116 31.64685334 -13.91934126 34.32340342 -14 37 C-17.3 37 -20.6 37 -24 37 C-24 25.12 -24 13.24 -24 1 C-21.36 1 -18.72 1 -16 1 C-16 2.65 -16 4.3 -16 6 C-15.43152344 5.566875 -14.86304688 5.13375 -14.27734375 4.6875 C-9.44313745 1.20106073 -6.18155903 -1.06988522 0 0 Z " fill="#54595C" transform="translate(421,111)"/>
<path d="M0 0 C0.66 0 1.32 0 2 0 C0.90773595 3.27679215 0.20070846 3.92308502 -2.375 6.0625 C-5.72963051 8.89874178 -8.97250286 11.81873985 -12.1875 14.8125 C-30.84840127 31.77928919 -52.39858806 45.56076478 -76.09765625 54.29394531 C-78.04264042 55.01582599 -79.97382859 55.76864518 -81.90625 56.5234375 C-90.25090662 59.70369449 -98.65407605 62.01212768 -107.375 63.9375 C-108.38046875 64.16123291 -109.3859375 64.38496582 -110.421875 64.61547852 C-111.36289063 64.81326904 -112.30390625 65.01105957 -113.2734375 65.21484375 C-114.11310059 65.39136475 -114.95276367 65.56788574 -115.81787109 65.74975586 C-118 66 -118 66 -121 65 C-120.39671875 64.26394531 -119.7934375 63.52789062 -119.171875 62.76953125 C-118.37265625 61.79371094 -117.5734375 60.81789062 -116.75 59.8125 C-115.96109375 58.84957031 -115.1721875 57.88664062 -114.359375 56.89453125 C-111.98089877 54.12624703 -111.98089877 54.12624703 -110.390625 51.26171875 C-107.19167845 48.23526442 -104.61545373 48.20978374 -100.33984375 47.60009766 C-94.2792661 46.51114299 -88.49552052 44.39806553 -82.67529297 42.42407227 C-80.50685237 41.68982027 -78.33397557 40.970103 -76.16015625 40.25195312 C-63.66191435 36.08355548 -52.11621056 30.66225414 -40.4375 24.5625 C-39.37853516 24.01529297 -38.31957031 23.46808594 -37.22851562 22.90429688 C-27.4706348 17.8239461 -18.15579692 12.18227115 -8.9375 6.1875 C-8.18017578 5.69830078 -7.42285156 5.20910156 -6.64257812 4.70507812 C-3.14636355 2.57647152 -3.14636355 2.57647152 0 0 Z " fill="#2B4F9F" transform="translate(183,55)"/>
<path d="M0 0 C1.5949042 0.81096824 3.18301937 1.63630989 4.75 2.5 C4.02633685 5.84430737 2.93284504 7.84262343 0.75 10.5 C-3.85273973 9.73287671 -3.85273973 9.73287671 -6.0625 8.4375 C-9.53444077 6.94952539 -12.48866336 7.25733312 -16.25 7.5 C-16.91 8.16 -17.57 8.82 -18.25 9.5 C-18.28593299 12.04584391 -18.28593299 12.04584391 -17.25 14.5 C-15.23819248 15.87060762 -15.23819248 15.87060762 -12.6875 16.625 C-11.33398438 17.10839844 -11.33398438 17.10839844 -9.953125 17.6015625 C-9.06109375 17.89804688 -8.1690625 18.19453125 -7.25 18.5 C4.20530146 22.41060291 4.20530146 22.41060291 6.75 27.5 C7.35879608 31.71533488 7.65636836 35.75200388 5.65625 39.609375 C1.78299056 44.43034686 -2.48041826 46.96148832 -8.68359375 47.84765625 C-16.38279706 48.28346021 -23.52856961 46.26162526 -30.25 42.5 C-31.62109375 40.328125 -31.62109375 40.328125 -32.25 38.5 C-30.27 35.53 -30.27 35.53 -28.25 32.5 C-25.58503105 33.03299379 -23.64079449 33.81081914 -21.1875 35.0625 C-16.38995239 37.22034893 -11.40209164 36.75154878 -6.25 36.5 C-5.92 34.85 -5.59 33.2 -5.25 31.5 C-9.16748629 29.32361873 -13.02874646 27.89886208 -17.3125 26.5625 C-22.69444618 24.80186333 -26.66458248 23.29335468 -29.5625 18.1875 C-30.81907388 13.27543848 -30.96790995 9.85605212 -28.5625 5.3125 C-20.91476542 -3.98879882 -10.74106322 -4.92530619 0 0 Z " fill="#55595D" transform="translate(250.25,101.5)"/>
<path d="M0 0 C4.45784696 2.59900889 8.10998514 5.61382259 10.7578125 10.08203125 C10.7578125 13.71203125 10.7578125 17.34203125 10.7578125 21.08203125 C2.1778125 21.08203125 -6.4021875 21.08203125 -15.2421875 21.08203125 C-13.07552083 26.91536458 -13.07552083 26.91536458 -10.2421875 28.08203125 C-4.91251542 28.42295166 -4.91251542 28.42295166 -0.2421875 26.08203125 C2.23828125 25.88671875 2.23828125 25.88671875 4.9453125 25.95703125 C5.84636719 25.97507813 6.74742187 25.993125 7.67578125 26.01171875 C8.36285156 26.03492188 9.04992187 26.058125 9.7578125 26.08203125 C8.56620201 30.71607206 6.29125984 32.48684905 2.51171875 35.06640625 C-2.1206096 37.74882356 -7.05925621 37.85347912 -12.2421875 37.08203125 C-17.87674586 34.71096709 -22.28885296 31.13733652 -24.64453125 25.41796875 C-26.08226736 19.79858185 -26.60609939 14.05082886 -24.13671875 8.67578125 C-18.45616935 0.51284699 -9.80335493 -4.01356866 0 0 Z " fill="#55595B" transform="translate(340.2421875,111.91796875)"/>
<path d="M0 0 C4.99927578 2.43812555 8.7390056 7.35001531 10.80859375 12.4140625 C10.80859375 15.0540625 10.80859375 17.6940625 10.80859375 20.4140625 C1.89859375 20.4140625 -7.01140625 20.4140625 -16.19140625 20.4140625 C-14.65097877 25.21710285 -14.65097877 25.21710285 -12.19140625 27.4140625 C-6.81810792 28.06670344 -6.81810792 28.06670344 -2.25390625 25.8515625 C1.16304323 23.47005225 4.87060843 24.71565912 8.80859375 25.4140625 C6.13523413 31.03046276 2.70585005 34.2298935 -3.19140625 36.4140625 C-8.45022281 37.22582613 -12.83002098 37.02866503 -17.50390625 34.3515625 C-22.5916823 30.61571071 -25.70343487 27.5430393 -26.703125 21.1328125 C-27.03744206 14.17901765 -26.59472096 9.32851969 -21.9921875 3.96484375 C-15.54754086 -1.5851014 -8.16645201 -2.18354332 0 0 Z " fill="#55595B" transform="translate(567.19140625,112.5859375)"/>
<path d="M0 0 C3.32945002 2.62542535 4.91723671 3.94187568 5.66015625 8.09765625 C5.73724348 9.46566444 5.76819234 10.83689217 5.7578125 12.20703125 C5.75458984 12.96113281 5.75136719 13.71523437 5.74804688 14.4921875 C5.73547852 15.65814453 5.73547852 15.65814453 5.72265625 16.84765625 C5.71814453 17.64042969 5.71363281 18.43320313 5.70898438 19.25 C5.6972419 21.19925133 5.67930771 23.14846363 5.66015625 25.09765625 C6.32015625 25.09765625 6.98015625 25.09765625 7.66015625 25.09765625 C7.66015625 28.06765625 7.66015625 31.03765625 7.66015625 34.09765625 C2.28709926 34.44998786 2.28709926 34.44998786 -0.33984375 34.09765625 C-2.33984375 32.09765625 -2.33984375 32.09765625 -3.33984375 30.09765625 C-4.73203125 31.05671875 -4.73203125 31.05671875 -6.15234375 32.03515625 C-10.7296579 34.99694776 -13.92844631 35.55624925 -19.33984375 35.09765625 C-23.04374396 33.07099387 -24.99347386 31.61721109 -27.33984375 28.09765625 C-27.92147831 23.02912653 -27.96503676 21.09060985 -25.21484375 16.72265625 C-19.00636592 11.05404606 -12.32399664 11.86510811 -4.33984375 12.09765625 C-5.42769343 8.8478249 -5.42769343 8.8478249 -7.33984375 6.09765625 C-13.08013778 5.70848377 -16.24692423 6.18741653 -21.33984375 9.09765625 C-21.99984375 9.09765625 -22.65984375 9.09765625 -23.33984375 9.09765625 C-24.59649353 6.19165364 -25.33984375 4.30161041 -25.33984375 1.09765625 C-18.02696191 -3.18305507 -7.44928028 -4.24304034 0 0 Z " fill="#575A5C" transform="translate(382.33984375,113.90234375)"/>
<path d="M0 0 C2.87305972 1.40460697 4.74510999 2.74510999 7 5 C8.06003697 8.81153333 8.11632775 12.45484375 8.09765625 16.39453125 C8.09443359 17.59658203 8.09121094 18.79863281 8.08789062 20.03710938 C8.07532227 21.90592773 8.07532227 21.90592773 8.0625 23.8125 C8.05798828 25.07771484 8.05347656 26.34292969 8.04882812 27.64648438 C8.03706251 30.7643711 8.02062272 33.88216133 8 37 C5.03 37 2.06 37 -1 37 C-1.01981934 36.28344238 -1.03963867 35.56688477 -1.06005859 34.82861328 C-1.15509519 31.5936937 -1.26486019 28.35943906 -1.375 25.125 C-1.4059375 23.99707031 -1.436875 22.86914062 -1.46875 21.70703125 C-1.50742187 20.63066406 -1.54609375 19.55429688 -1.5859375 18.4453125 C-1.63306885 16.95281982 -1.63306885 16.95281982 -1.68115234 15.43017578 C-1.77247083 12.82145483 -1.77247083 12.82145483 -4 11 C-7.45786015 10.49992206 -7.45786015 10.49992206 -11 11 C-13.89521144 13.90817196 -14.39463851 16.17556483 -14.51171875 20.203125 C-14.54716797 21.1828125 -14.58261719 22.1625 -14.61914062 23.171875 C-14.65297852 24.69554687 -14.65297852 24.69554687 -14.6875 26.25 C-14.72166016 27.28125 -14.75582031 28.3125 -14.79101562 29.375 C-14.87337215 31.91628699 -14.93836593 34.45812601 -15 37 C-18.3 37 -21.6 37 -25 37 C-25 25.12 -25 13.24 -25 1 C-22.03 1 -19.06 1 -16 1 C-15.67 2.32 -15.34 3.64 -15 5 C-14.50371094 4.6390625 -14.00742187 4.278125 -13.49609375 3.90625 C-8.87532166 0.74974534 -5.77166682 -0.87119499 0 0 Z " fill="#54585B" transform="translate(526,111)"/>
<path d="M0 0 C2.97 0 5.94 0 9 0 C9 3.63 9 7.26 9 11 C11.64 11 14.28 11 17 11 C17 13.64 17 16.28 17 19 C14.36 19 11.72 19 9 19 C9.33 24.94 9.66 30.88 10 37 C12.64 37.33 15.28 37.66 18 38 C19.35439668 40.70879335 19.06501451 43.00933268 19 46 C14.04636392 47.98145443 10.26047553 48.4242319 5 48 C1.76386646 46.25746655 1.17604685 45.52814056 0 42 C-0.08209792 40.22686149 -0.10746294 38.45079225 -0.09765625 36.67578125 C-0.09282227 35.13374023 -0.09282227 35.13374023 -0.08789062 33.56054688 C-0.07951172 32.48869141 -0.07113281 31.41683594 -0.0625 30.3125 C-0.05798828 29.22904297 -0.05347656 28.14558594 -0.04882812 27.02929688 C-0.03703743 24.35280915 -0.02058063 21.67643223 0 19 C-1.65 19 -3.3 19 -5 19 C-5 16.36 -5 13.72 -5 11 C-3.35 11 -1.7 11 0 11 C0 7.37 0 3.74 0 0 Z " fill="#515659" transform="translate(266,101)"/>
<path d="M0 0 C3.3 0 6.6 0 10 0 C10 13.53 10 27.06 10 41 C12.31 41 14.62 41 17 41 C17 43.97 17 46.94 17 50 C14.32296769 50.8923441 12.40616916 51.25160342 9.625 51.375 C8.87476563 51.42398438 8.12453125 51.47296875 7.3515625 51.5234375 C3.59796441 50.68791899 2.32025349 49.04368395 0 46 C-0.69137807 42.4770759 -0.58247176 39.02752066 -0.48828125 35.44921875 C-0.48120651 34.43527542 -0.47413177 33.42133209 -0.46684265 32.37666321 C-0.43891012 29.1461837 -0.37617162 25.91745339 -0.3125 22.6875 C-0.28741575 20.4941657 -0.26460281 18.30080416 -0.24414062 16.10742188 C-0.18908675 10.73760986 -0.10281998 5.36910124 0 0 Z " fill="#5A5D60" transform="translate(461,98)"/>
<path d="M0 0 C2.97 0 5.94 0 9 0 C9 1.98 9 3.96 9 6 C9.66 6 10.32 6 11 6 C11.268125 5.38125 11.53625 4.7625 11.8125 4.125 C13 2 13 2 16 0 C19.1875 -0.125 19.1875 -0.125 22 0 C22 2.97 22 5.94 22 9 C18.58203125 9.68359375 18.58203125 9.68359375 15.1640625 10.3671875 C12.81326077 10.86658932 12.81326077 10.86658932 11 13 C10.62904292 15.42246595 10.62904292 15.42246595 10.5859375 18.2265625 C10.52792969 19.7734375 10.52792969 19.7734375 10.46875 21.3515625 C10.4378125 22.43179688 10.406875 23.51203125 10.375 24.625 C10.31699219 26.25695312 10.31699219 26.25695312 10.2578125 27.921875 C10.16334154 30.61429745 10.08057419 33.30712584 10 36 C6.7 36 3.4 36 0 36 C0 24.12 0 12.24 0 0 Z " fill="#56595C" transform="translate(290,112)"/>
<path d="M0 0 C3.3 0 6.6 0 10 0 C10 11.88 10 23.76 10 36 C6.7 36 3.4 36 0 36 C0 24.12 0 12.24 0 0 Z " fill="#565B5E" transform="translate(483,112)"/>
<path d="M0 0 C0 3.3 0 6.6 0 10 C0.66 10 1.32 10 2 10 C2 15.94 2 21.88 2 28 C1.67 28 1.34 28 1 28 C0.67 24.7 0.34 21.4 0 18 C-0.66 21.63 -1.32 25.26 -2 29 C-2.99 29.33 -3.98 29.66 -5 30 C-4.37679879 23.56025419 -3.35991738 17.32427599 -2 11 C-2.268125 11.80179688 -2.53625 12.60359375 -2.8125 13.4296875 C-14.25006602 46.61367837 -14.25006602 46.61367837 -20.0625 50.3125 C-20.701875 50.539375 -21.34125 50.76625 -22 51 C-22.99 51.495 -22.99 51.495 -24 52 C-22.86228283 48.79370615 -21.41930738 45.88965131 -19.75 42.9375 C-13.06684112 31.01302994 -7.9429911 18.72565318 -3 6 C-5.88255207 10.74481939 -8.74566149 15.48425089 -11.375 20.375 C-13.45291691 24.12865636 -15.68246495 27.76415888 -18 31.375 C-18.639375 32.37273437 -19.27875 33.37046875 -19.9375 34.3984375 C-22.10659223 37.13445156 -23.9698488 38.33799338 -27 40 C-28.79521298 41.55745537 -28.79521298 41.55745537 -30.3125 43.1875 C-31.199375 44.115625 -32.08625 45.04375 -33 46 C-33.66 45.67 -34.32 45.34 -35 45 C-34.24976563 44.22398438 -33.49953125 43.44796875 -32.7265625 42.6484375 C-22.62796678 32.05038773 -14.23294104 20.76055452 -7 8 C-8.32 8.99 -9.64 9.98 -11 11 C-11 10.01 -11 9.02 -11 8 C-10.34 7.67 -9.68 7.34 -9 7 C-9 6.01 -9 5.02 -9 4 C-2.25 0 -2.25 0 0 0 Z " fill="#D9F2EE" transform="translate(193,50)"/>
<path d="M0 0 C0.66 0 1.32 0 2 0 C2.99 0 3.98 0 5 0 C5.13559675 2.56428515 5.23433188 5.12135216 5.3125 7.6875 C5.3753418 8.7693457 5.3753418 8.7693457 5.43945312 9.87304688 C5.53501378 14.05860365 5.34425533 15.55680742 2.67578125 18.9921875 C0 21 0 21 -3.125 21.4375 C-6 21 -6 21 -9 19 C-9 18.34 -9 17.68 -9 17 C-6.03 17.33 -3.06 17.66 0 18 C0 17.01 0 16.02 0 15 C-1.11375 14.896875 -2.2275 14.79375 -3.375 14.6875 C-5.169375 14.3471875 -5.169375 14.3471875 -7 14 C-9.54014875 10.18977687 -9.58606955 7.46529184 -9 3 C-6.8662189 -0.79338863 -4.0319877 -0.25736092 0 0 Z " fill="#727373" transform="translate(481,170)"/>
<path d="M0 0 C0.99 0 1.98 0 3 0 C3.33 6.93 3.66 13.86 4 21 C-6.13528336 21.48263254 -6.13528336 21.48263254 -9.6875 19.5 C-11.68854674 15.6884824 -11.54485843 13.29076011 -11 9 C-9.4375 6.9375 -9.4375 6.9375 -7 6 C-3.25 6.3125 -3.25 6.3125 0 7 C0 4.69 0 2.38 0 0 Z " fill="#6D6C6B" transform="translate(465,164)"/>
<path d="M0 0 C2.5 2.125 2.5 2.125 4 5 C4 8.63075827 3.41176127 10.42048414 1.3125 13.375 C-1 15 -1 15 -4 15.5625 C-7 15 -7 15 -9.375 12.875 C-11.28071139 9.50335677 -11.64850195 7.80994895 -11 4 C-8.07075041 -0.45245938 -5.11843736 -0.822606 0 0 Z " fill="#747575" transform="translate(267,170)"/>
<path d="M0 0 C2.9375 2.0625 2.9375 2.0625 5 5 C5.06641554 8.85210127 4.87229157 10.99848005 2.3125 13.9375 C-0.71969746 15.33067181 -2.70130212 15.49129543 -6 15 C-8.2288277 13.21693784 -8.87382488 11.8709588 -9.28125 9.05859375 C-9.41375481 6.06067237 -9.36447879 3.6479623 -7.875 1 C-5.00288188 -0.53179633 -3.2072487 -0.51315979 0 0 Z " fill="#686A69" transform="translate(547,170)"/>
<path d="M0 0 C1.9375 1 1.9375 1 3 3 C3.75912409 9.83211679 3.75912409 9.83211679 1.375 13.5 C-1.70309234 15.44405832 -3.42402849 15.608676 -7 15 C-9.2288277 13.21693784 -9.87382488 11.8709588 -10.28125 9.05859375 C-10.41239843 6.09136059 -10.34650111 3.65223739 -8.9375 1 C-5.86784865 -0.58433618 -3.38318857 -0.36248449 0 0 Z " fill="#6D6D6D" transform="translate(401,170)"/>
<path d="M0 0 C-0.62689725 4.63903965 -0.62689725 4.63903965 -2.3203125 6.27734375 C-4.64126976 8.65767433 -5.96856459 11.33499495 -7.5625 14.25 C-10.60017134 19.6769319 -13.78906286 24.97839395 -17.1875 30.1875 C-17.59105713 30.82268555 -17.99461426 31.45787109 -18.41040039 32.11230469 C-20.87595099 35.83757787 -23.07519211 37.92291011 -27 40 C-28.79521298 41.55745537 -28.79521298 41.55745537 -30.3125 43.1875 C-31.199375 44.115625 -32.08625 45.04375 -33 46 C-33.66 45.67 -34.32 45.34 -35 45 C-34.24976563 44.22398438 -33.49953125 43.44796875 -32.7265625 42.6484375 C-22.62796678 32.05038773 -14.23294104 20.76055452 -7 8 C-8.32 8.99 -9.64 9.98 -11 11 C-11 10.01 -11 9.02 -11 8 C-10.34 7.67 -9.68 7.34 -9 7 C-9 6.01 -9 5.02 -9 4 C-2.25 0 -2.25 0 0 0 Z " fill="#D3E0EB" transform="translate(193,50)"/>
<path d="M0 0 C2.4375 1.75 2.4375 1.75 4 4 C4 5.32 4 6.64 4 8 C0.04 8 -3.92 8 -8 8 C-7.67 9.32 -7.34 10.64 -7 12 C-3.4780279 12.08004482 -0.38018531 12.04005702 3 11 C0.74851506 13.77105839 -0.43710973 14.89445807 -4 15.5625 C-7 15 -7 15 -9.375 12.875 C-11.28071139 9.50335677 -11.64850195 7.80994895 -11 4 C-8.05899778 -0.47032338 -5.13105401 -0.73300772 0 0 Z " fill="#797A79" transform="translate(313,170)"/>
<path d="M0 0 C2.375 1.75 2.375 1.75 4 4 C4 5.32 4 6.64 4 8 C0.37 8 -3.26 8 -7 8 C-6.34 9.32 -5.68 10.64 -5 12 C-2.23723823 11.47731534 0.3260876 10.89130413 3 10 C2.625 11.9375 2.625 11.9375 2 14 C-0.84083641 15.42041821 -2.85477278 15.31452272 -6 15 C-8.375 13.4375 -8.375 13.4375 -10 11 C-10.56783945 7.02512383 -10.62340519 4.93510779 -8.375 1.5625 C-5.28314769 -0.47161336 -3.63632575 -0.60605429 0 0 Z " fill="#7C7D7E" transform="translate(499,170)"/>
<path d="M0 0 C4.62 0 9.24 0 14 0 C14 0.66 14 1.32 14 2 C10.37 2 6.74 2 3 2 C3 3.98 3 5.96 3 8 C5.97 8 8.94 8 12 8 C12 8.66 12 9.32 12 10 C9.03 10 6.06 10 3 10 C3 12.31 3 14.62 3 17 C6.63 17 10.26 17 14 17 C14 17.99 14 18.98 14 20 C9.38 20 4.76 20 0 20 C0 13.4 0 6.8 0 0 Z " fill="#7D7F82" transform="translate(220,165)"/>
<path d="M0 0 C3 1 3 1 3.94921875 2.84765625 C4.6328125 4.8984375 5.31640625 6.94921875 6 9 C6.66 6.03 7.32 3.06 8 0 C9.65 0 11.3 0 13 0 C13.66 2.97 14.32 5.94 15 9 C16.32 6.03 17.64 3.06 19 0 C19.66 0 20.32 0 21 0 C19.8545847 5.1103144 18.54521255 9.37234081 16 14 C15.01 14 14.02 14 13 14 C12.01 11.69 11.02 9.38 10 7 C9.34 9.31 8.68 11.62 8 14 C6.140625 13.83984375 6.140625 13.83984375 4 13 C2.734375 10.56640625 2.734375 10.56640625 1.75 7.5625 C1.41484375 6.57378906 1.0796875 5.58507812 0.734375 4.56640625 C0 2 0 2 0 0 Z " fill="#636667" transform="translate(406,170)"/>
<path d="M0 0 C0.99 0 1.98 0 3 0 C3.99 2.97 4.98 5.94 6 9 C7.49743119 7.50256881 7.33202693 6.01175761 7.5625 3.9375 C7.706875 2.638125 7.85125 1.33875 8 0 C9.32 0 10.64 0 12 0 C12.99 2.97 13.98 5.94 15 9 C16.32 6.03 17.64 3.06 19 0 C19.66 0 20.32 0 21 0 C19.8545847 5.1103144 18.54521255 9.37234081 16 14 C15.01 13.67 14.02 13.34 13 13 C11.8125 10.4375 11.8125 10.4375 11 8 C8.89767656 10.8684413 8.89767656 10.8684413 8 14 C7.01 14 6.02 14 5 14 C4.16235732 12.04350603 3.33000941 10.08474444 2.5 8.125 C2.0359375 7.03445312 1.571875 5.94390625 1.09375 4.8203125 C0 2 0 2 0 0 Z " fill="#6E6F71" transform="translate(553,170)"/>
<path d="M0 0 C1.09054687 0.02320313 2.18109375 0.04640625 3.3046875 0.0703125 C4.40039062 0.08835938 5.49609375 0.10640625 6.625 0.125 C7.46804688 0.14820313 8.31109375 0.17140625 9.1796875 0.1953125 C9.34375 2.55078125 9.34375 2.55078125 9.1796875 5.1953125 C6.11951111 7.89118217 4.0585498 9.09191694 -0.0078125 9.5703125 C-2.8203125 9.1953125 -2.8203125 9.1953125 -5.8203125 7.1953125 C-4.73599646 0.32797759 -4.73599646 0.32797759 0 0 Z " fill="#EFEEEC" transform="translate(369.8203125,131.8046875)"/>
<path d="M0 0 C3.375 1.75 3.375 1.75 6 4 C6 5.32 6 6.64 6 8 C0.39 8 -5.22 8 -11 8 C-10 3 -10 3 -8.3125 1.1875 C-5.2301261 -0.39534065 -3.43443019 -0.48082023 0 0 Z " fill="#EAEAEA" transform="translate(336,119)"/>
<path d="M0 0 C2.8125 1.1875 2.8125 1.1875 5 3 C5.33 4.65 5.66 6.3 6 8 C0.39 8 -5.22 8 -11 8 C-10 3 -10 3 -8.3125 1.1875 C-5.27594445 -0.37181231 -3.37989167 -0.41386429 0 0 Z " fill="#EAEAEA" transform="translate(562,119)"/>
<path d="M0 0 C4.29 0 8.58 0 13 0 C13 0.66 13 1.32 13 2 C9.7 2 6.4 2 3 2 C3 3.98 3 5.96 3 8 C5.97 8 8.94 8 12 8 C12 8.99 12 9.98 12 11 C9.03 11 6.06 11 3 11 C3 13.97 3 16.94 3 20 C2.01 20 1.02 20 0 20 C0 13.4 0 6.8 0 0 Z " fill="#7D7D7E" transform="translate(514,165)"/>
<path d="M0 0 C0.66 0 1.32 0 2 0 C2.33 2.97 2.66 5.94 3 9 C5.64 6.03 8.28 3.06 11 0 C11.99 0.33 12.98 0.66 14 1 C13.154375 1.721875 12.30875 2.44375 11.4375 3.1875 C8.78069093 5.67228979 8.78069093 5.67228979 8.875 8.3125 C10.48458201 12.15761259 12.67860487 15.54788843 15 19 C12.46089803 18.61479436 11.27248877 18.29902057 9.515625 16.37109375 C9.09796875 15.73300781 8.6803125 15.09492188 8.25 14.4375 C7.82203125 13.79683594 7.3940625 13.15617188 6.953125 12.49609375 C6.63859375 12.00238281 6.3240625 11.50867188 6 11 C5.01 11.66 4.02 12.32 3 13 C2.26393501 16.56769552 2.26393501 16.56769552 2 20 C1.34 20 0.68 20 0 20 C0 13.4 0 6.8 0 0 Z " fill="#717272" transform="translate(357,165)"/>
<path d="M0 0 C3.63 0 7.26 0 11 0 C11 2.97 11 5.94 11 9 C7.37 9 3.74 9 0 9 C0 6.03 0 3.06 0 0 Z " fill="#5E6264" transform="translate(482,98)"/>
<path d="M0 0 C1.42122196 4.26366589 -0.45966206 6.9404554 -2.25 10.8125 C-2.56324219 11.51181641 -2.87648437 12.21113281 -3.19921875 12.93164062 C-4.11519281 14.96312667 -5.052723 16.98294673 -6 19 C-6.79470703 20.69769531 -6.79470703 20.69769531 -7.60546875 22.4296875 C-9.14235158 25.2623735 -10.02177329 25.94320988 -13 27 C-13.66 27.33 -14.32 27.66 -15 28 C-13.57161093 23.97453991 -11.59926535 20.39034354 -9.50390625 16.6875 C-7.08740219 12.36917586 -4.77858395 7.99281854 -2.453125 3.625 C-1 1 -1 1 0 0 Z " fill="#E2EDF0" transform="translate(184,74)"/>
<path d="M0 0 C2.5 0.25 2.5 0.25 4.5 2.25 C4.83661952 5.4142235 4.99943411 7.43513382 3.3125 10.1875 C1.5 11.25 1.5 11.25 -1.125 11.0625 C-3.5 10.25 -3.5 10.25 -4.5 8.25 C-4.6875 5.25 -4.6875 5.25 -4.5 2.25 C-2.5 0.25 -2.5 0.25 0 0 Z " fill="#EFEDEC" transform="translate(263.5,171.75)"/>
<path d="M0 0 C2.5 0.25 2.5 0.25 4.5 2.25 C4.8125 5.75 4.8125 5.75 4.5 9.25 C1.5 11.25 1.5 11.25 -0.5625 11 C-2.5 10.25 -2.5 10.25 -4.5 8.25 C-4.75 5.25 -4.75 5.25 -4.5 2.25 C-2.5 0.25 -2.5 0.25 0 0 Z " fill="#EFEDEA" transform="translate(544.5,171.75)"/>
<path d="M0 0 C2.5625 0.1875 2.5625 0.1875 4.5625 2.1875 C4.875 5.6875 4.875 5.6875 4.5625 9.1875 C1.5625 11.1875 1.5625 11.1875 -0.5 10.9375 C-2.4375 10.1875 -2.4375 10.1875 -4.4375 8.1875 C-3.74456522 0.28804348 -3.74456522 0.28804348 0 0 Z " fill="#EFEDEB" transform="translate(478.4375,171.8125)"/>
<path d="M0 0 C2.5 0.25 2.5 0.25 4.5 2.25 C4.83661952 5.4142235 4.99943411 7.43513382 3.3125 10.1875 C1.5 11.25 1.5 11.25 -1.125 11.0625 C-3.5 10.25 -3.5 10.25 -4.5 8.25 C-4.6875 5.25 -4.6875 5.25 -4.5 2.25 C-2.5 0.25 -2.5 0.25 0 0 Z " fill="#F3F2F0" transform="translate(397.5,171.75)"/>
<path d="M0 0 C2.375 0.75 2.375 0.75 3.375 1.75 C3.5625 5.1875 3.5625 5.1875 3.375 8.75 C2.715 9.41 2.055 10.07 1.375 10.75 C-1.92214793 10.42028521 -3.2476839 10.1273161 -5.625 7.75 C-5.99296448 4.87987704 -6.00009409 3.34225382 -4.4375 0.875 C-2.625 -0.25 -2.625 -0.25 0 0 Z " fill="#F1EFEB" transform="translate(461.625,172.25)"/>
<path d="M0 0 C1.4540625 0.0309375 1.4540625 0.0309375 2.9375 0.0625 C2.9375 0.7225 2.9375 1.3825 2.9375 2.0625 C1.2875 2.0625 -0.3625 2.0625 -2.0625 2.0625 C-2.0625 3.3825 -2.0625 4.7025 -2.0625 6.0625 C-1.0725 6.0625 -0.0825 6.0625 0.9375 6.0625 C0.9375 7.0525 0.9375 8.0425 0.9375 9.0625 C-0.0525 9.0625 -1.0425 9.0625 -2.0625 9.0625 C-2.0625 12.6925 -2.0625 16.3225 -2.0625 20.0625 C-3.0525 20.3925 -4.0425 20.7225 -5.0625 21.0625 C-5.0625 16.7725 -5.0625 12.4825 -5.0625 8.0625 C-5.7225 7.7325 -6.3825 7.4025 -7.0625 7.0625 C-3.64276316 0.07434211 -3.64276316 0.07434211 0 0 Z " fill="#656464" transform="translate(253.0625,163.9375)"/>
<path d="M0 0 C0.99 0 1.98 0 3 0 C3 1.65 3 3.3 3 5 C3.99 5 4.98 5 6 5 C6 5.66 6 6.32 6 7 C5.01 7 4.02 7 3 7 C3 10.3 3 13.6 3 17 C4.32 17 5.64 17 7 17 C6.67 17.99 6.34 18.98 6 20 C4.35 20 2.7 20 1 20 C-0.32229189 17.35541621 -0.09677194 15.32238699 -0.0625 12.375 C-0.05347656 11.37210938 -0.04445313 10.36921875 -0.03515625 9.3359375 C-0.01775391 8.17964844 -0.01775391 8.17964844 0 7 C-0.66 7 -1.32 7 -2 7 C-2 6.34 -2 5.68 -2 5 C-1.34 5 -0.68 5 0 5 C0 3.35 0 1.7 0 0 Z " fill="#717272" transform="translate(285,165)"/>
<path d="M0 0 C3.5 0.1875 3.5 0.1875 5.5 1.1875 C5.5 1.8475 5.5 2.5075 5.5 3.1875 C2.86 3.1875 0.22 3.1875 -2.5 3.1875 C-2.5 3.8475 -2.5 4.5075 -2.5 5.1875 C0.14 6.1775 2.78 7.1675 5.5 8.1875 C5.6875 10.5625 5.6875 10.5625 5.5 13.1875 C2.03076119 15.50032587 0.57794425 15.61228586 -3.5 15.1875 C-5.375 13.6875 -5.375 13.6875 -6.5 12.1875 C-3.43109813 10.65304906 -0.79905734 11.63765711 2.5 12.1875 C2.5 11.5275 2.5 10.8675 2.5 10.1875 C0.7984375 9.5996875 0.7984375 9.5996875 -0.9375 9 C-4.5 7.1875 -4.5 7.1875 -5.5625 4.625 C-5.45567875 0.45897144 -3.95064504 0.2116417 0 0 Z " fill="#696A6A" transform="translate(339.5,169.8125)"/>
<path d="M0 0 C1.670625 0.061875 1.670625 0.061875 3.375 0.125 C3.705 1.115 4.035 2.105 4.375 3.125 C2.065 3.125 -0.245 3.125 -2.625 3.125 C-2.625 3.785 -2.625 4.445 -2.625 5.125 C-1.490625 5.516875 -0.35625 5.90875 0.8125 6.3125 C4.375 8.125 4.375 8.125 5.3125 10.8125 C5.333125 11.575625 5.35375 12.33875 5.375 13.125 C1.7308226 15.5544516 -0.33741272 15.28679575 -4.625 15.125 C-5.285 13.805 -5.945 12.485 -6.625 11.125 C-3.655 11.455 -0.685 11.785 2.375 12.125 C2.375 11.465 2.375 10.805 2.375 10.125 C0.6734375 9.5371875 0.6734375 9.5371875 -1.0625 8.9375 C-4.625 7.125 -4.625 7.125 -5.6875 4.5625 C-5.57852884 0.31262468 -4.02097931 0.13865446 0 0 Z " fill="#727373" transform="translate(325.625,169.875)"/>
<path d="M0 0 C1.32 0 2.64 0 4 0 C5.546875 -0.061875 5.546875 -0.061875 7.125 -0.125 C10 0 10 0 12 2 C12.1953125 4.8203125 12.1953125 4.8203125 12.125 8.125 C12.10695313 9.22070312 12.08890625 10.31640625 12.0703125 11.4453125 C12.04710937 12.28835937 12.02390625 13.13140625 12 14 C11.34 14 10.68 14 10 14 C9.67 10.37 9.34 6.74 9 3 C4.36980013 3.4452998 4.36980013 3.4452998 3 5 C2.76712992 6.68183948 2.58735834 8.3712416 2.4375 10.0625 C2.31181641 11.44115234 2.31181641 11.44115234 2.18359375 12.84765625 C2.12300781 13.55792969 2.06242187 14.26820313 2 15 C1.34 15 0.68 15 0 15 C0 10.05 0 5.1 0 0 Z " fill="#646566" transform="translate(375,170)"/>
<path d="M0 0 C0.33 0 0.66 0 1 0 C0.56000509 6.04993006 -0.54946585 11.79596749 -1.9375 17.6875 C-2.10733398 18.41187256 -2.27716797 19.13624512 -2.45214844 19.88256836 C-3.44349327 23.99948183 -4.59524737 27.99991963 -6 32 C-6.68707555 29.50935112 -7 27.62113708 -7 25 C-7.66 25.33 -8.32 25.66 -9 26 C-7.64915739 21.77502417 -6.27552297 17.6314068 -4.5 13.5625 C-2.63548833 9.13428477 -1.30996291 4.61738698 0 0 Z " fill="#4AC1B4" transform="translate(191,58)"/>
<path d="M0 0 C1.4540625 0.0309375 1.4540625 0.0309375 2.9375 0.0625 C2.9375 0.7225 2.9375 1.3825 2.9375 2.0625 C1.2875 2.0625 -0.3625 2.0625 -2.0625 2.0625 C-2.0625 3.3825 -2.0625 4.7025 -2.0625 6.0625 C-0.7425 6.0625 0.5775 6.0625 1.9375 6.0625 C1.9375 6.7225 1.9375 7.3825 1.9375 8.0625 C0.2875 8.0625 -1.3625 8.0625 -3.0625 8.0625 C-3.0625 12.3525 -3.0625 16.6425 -3.0625 21.0625 C-3.7225 21.0625 -4.3825 21.0625 -5.0625 21.0625 C-5.0625 16.7725 -5.0625 12.4825 -5.0625 8.0625 C-5.7225 8.0625 -6.3825 8.0625 -7.0625 8.0625 C-7.0625 7.4025 -7.0625 6.7425 -7.0625 6.0625 C-6.4025 6.0625 -5.7425 6.0625 -5.0625 6.0625 C-4.918125 5.258125 -4.77375 4.45375 -4.625 3.625 C-3.8465 0.0785 -3.8465 0.0785 0 0 Z " fill="#747677" transform="translate(243.0625,163.9375)"/>
<path d="M0 0 C5.75 0.75 5.75 0.75 8 3 C8 4.65 8 6.3 8 8 C4.37 8 0.74 8 -3 8 C-2.34 9.32 -1.68 10.64 -1 12 C2.04386724 12.08226668 4.07175348 11.97608217 7 11 C6 14 6 14 4 15 C-1.21653972 15.44396083 -1.21653972 15.44396083 -3.875 13.9375 C-5.58196395 10.99772876 -5.18799766 8.32129197 -5 5 C-4.67 5.66 -4.34 6.32 -4 7 C-0.7 7 2.6 7 6 7 C4.11656068 3.23312136 3.30867531 2.20578354 0 0 Z " fill="#6B6C6C" transform="translate(443,170)"/>
<path d="M0 0 C0.33 0 0.66 0 1 0 C1.22491048 5.7769863 0.64478383 10.34871735 -1.1875 15.8125 C-1.40946045 16.49957031 -1.6314209 17.18664062 -1.86010742 17.89453125 C-3.8167976 23.79280012 -6.22989919 29.43622305 -9 35 C-9.66 35 -10.32 35 -11 35 C-9.41460399 30.23063695 -7.82067869 25.46433134 -6.2109375 20.703125 C-5.59893477 18.8854246 -4.98695581 17.0677162 -4.375 15.25 C-4.06304687 14.33089844 -3.75109375 13.41179687 -3.4296875 12.46484375 C-3.130625 11.57410156 -2.8315625 10.68335937 -2.5234375 9.765625 C-2.25450684 8.96930664 -1.98557617 8.17298828 -1.70849609 7.35253906 C-0.97563725 4.91910426 -0.45921525 2.49826391 0 0 Z " fill="#54D6B4" transform="translate(188,88)"/>
<path d="M0 0 C3 1 3 1 3.94921875 2.84765625 C4.6328125 4.8984375 5.31640625 6.94921875 6 9 C6.66 6.03 7.32 3.06 8 0 C9.65 0 11.3 0 13 0 C12.67 1.32 12.34 2.64 12 4 C12 3.34 12 2.68 12 2 C11.34 2 10.68 2 10 2 C9.67 2.99 9.34 3.98 9 5 C9.66 5.33 10.32 5.66 11 6 C10.01 8.64 9.02 11.28 8 14 C6.68 13.67 5.36 13.34 4 13 C2.734375 10.56640625 2.734375 10.56640625 1.75 7.5625 C1.41484375 6.57378906 1.0796875 5.58507812 0.734375 4.56640625 C0 2 0 2 0 0 Z " fill="#8A8B8C" transform="translate(406,170)"/>
<path d="M0 0 C0.350625 0.598125 0.70125 1.19625 1.0625 1.8125 C3.71268783 4.80464755 6.27773184 5.59537051 10 7 C9.67 7.99 9.34 8.98 9 10 C7.7625 9.79375 6.525 9.5875 5.25 9.375 C1.88090165 8.93892876 -0.12841921 8.96596361 -3 11 C-2.979375 10.21625 -2.95875 9.4325 -2.9375 8.625 C-2.81315937 6.01885039 -2.81315937 6.01885039 -4 4 C-2.68 4.33 -1.36 4.66 0 5 C0 3.35 0 1.7 0 0 Z " fill="#E7E6E4" transform="translate(333,173)"/>
<path d="M0 0 C5.75 1.75 5.75 1.75 8 4 C8 4.99 8 5.98 8 7 C4.7 7 1.4 7 -2 7 C-2.66 8.32 -3.32 9.64 -4 11 C-4.49230769 4.6 -4.49230769 4.6 -2 1.5625 C-1.34 1.046875 -0.68 0.53125 0 0 Z " fill="#898989" transform="translate(441,170)"/>
<path d="M0 0 C0.99 0 1.98 0 3 0 C3 6.27 3 12.54 3 19 C3.99 19.33 4.98 19.66 6 20 C4.33388095 20.042721 2.66617115 20.04063832 1 20 C0 19 0 19 -0.11352539 17.14233398 C-0.10828857 16.35157471 -0.10305176 15.56081543 -0.09765625 14.74609375 C-0.09443359 13.89208984 -0.09121094 13.03808594 -0.08789062 12.15820312 C-0.07951172 11.26037109 -0.07113281 10.36253906 -0.0625 9.4375 C-0.05798828 8.53580078 -0.05347656 7.63410156 -0.04882812 6.70507812 C-0.03700225 4.46998686 -0.0205222 2.23502563 0 0 Z " fill="#747474" transform="translate(530,164)"/>
<path d="M0 0 C0 2.31 0 4.62 0 7 C-0.33 6.34 -0.66 5.68 -1 5 C-1.66 6.32 -2.32 7.64 -3 9 C-3.33 8.34 -3.66 7.68 -4 7 C-4.99 7.66 -5.98 8.32 -7 9 C-9.5625 9.25 -9.5625 9.25 -12 9 C-12.66 8.34 -13.32 7.68 -14 7 C-14 6.01 -14 5.02 -14 4 C-10.37 4 -6.74 4 -3 4 C-3 3.01 -3 2.02 -3 1 C-1 0 -1 0 0 0 Z " fill="#E9E7E5" transform="translate(454,174)"/>
<path d="M0 0 C0.33 0 0.66 0 1 0 C1.11638036 3.24969769 1.18730581 6.4988583 1.25 9.75 C1.30027344 11.13058594 1.30027344 11.13058594 1.3515625 12.5390625 C1.45112665 19.40898911 1.45112665 19.40898911 -1.015625 22.640625 C-1.67046875 23.08921875 -2.3253125 23.5378125 -3 24 C-4.04318738 20.76319429 -3.92287835 18.54451583 -3.22265625 15.234375 C-2.94711914 13.90019531 -2.94711914 13.90019531 -2.66601562 12.5390625 C-2.46685547 11.61867188 -2.26769531 10.69828125 -2.0625 9.75 C-1.86720703 8.81414062 -1.67191406 7.87828125 -1.47070312 6.9140625 C-0.98823295 4.60761973 -0.49775423 2.303184 0 0 Z " fill="#5DD4B6" transform="translate(193,63)"/>
<path d="M0 0 C1.1817019 3.5451057 0.7911988 4.14017506 -0.65234375 7.44921875 C-1.01650391 8.29677734 -1.38066406 9.14433594 -1.75585938 10.01757812 C-2.14580078 10.89865234 -2.53574219 11.77972656 -2.9375 12.6875 C-3.32357422 13.58017578 -3.70964844 14.47285156 -4.10742188 15.39257812 C-5.06311123 17.59892268 -6.02755469 19.80100147 -7 22 C-7.99 22 -8.98 22 -10 22 C-10.99 22.66 -11.98 23.32 -13 24 C-11.50098219 19.82915771 -9.42839703 16.30299642 -7.0625 12.5625 C-4.47121922 8.46004239 -2.10445818 4.37384255 0 0 Z " fill="#3E7DB3" transform="translate(190,54)"/>
<path d="M0 0 C1.32 0.33 2.64 0.66 4 1 C6.18703385 0.62092718 6.18703385 0.62092718 8 0 C8 0.66 8 1.32 8 2 C7.03320312 2.32097656 7.03320312 2.32097656 6.046875 2.6484375 C3.72160885 3.8473523 3.72160885 3.8473523 3.390625 6.6015625 C3.34421875 7.59929687 3.2978125 8.59703125 3.25 9.625 C3.19328125 10.62789062 3.1365625 11.63078125 3.078125 12.6640625 C3.05234375 13.43492187 3.0265625 14.20578125 3 15 C2.01 15 1.02 15 0 15 C0 10.05 0 5.1 0 0 Z " fill="#737373" transform="translate(274,170)"/>
<path d="M0 0 C0.99 0 1.98 0 3 0 C3.99 2.97 4.98 5.94 6 9 C7.49743119 7.50256881 7.33202693 6.01175761 7.5625 3.9375 C7.706875 2.638125 7.85125 1.33875 8 0 C8.66 0.33 9.32 0.66 10 1 C10.19294408 5.82360189 9.75747614 9.49646738 8 14 C7.01 14 6.02 14 5 14 C4.16235732 12.04350603 3.33000941 10.08474444 2.5 8.125 C2.0359375 7.03445312 1.571875 5.94390625 1.09375 4.8203125 C0 2 0 2 0 0 Z " fill="#7A7B7C" transform="translate(553,170)"/>
<path d="M0 0 C0.66 0 1.32 0 2 0 C2 5.94 2 11.88 2 18 C3.32 18 4.64 18 6 18 C5.67 18.99 5.34 19.98 5 21 C3.35 20.67 1.7 20.34 0 20 C0 13.4 0 6.8 0 0 Z " fill="#6D6E6E" transform="translate(430,164)"/>
<path d="M0 0 C0.33 0 0.66 0 1 0 C1.33 6.93 1.66 13.86 2 21 C-1.63 21 -5.26 21 -9 21 C-9 20.67 -9 20.34 -9 20 C-7.35 20 -5.7 20 -4 20 C-3.34 17.03 -2.68 14.06 -2 11 C-1.67 11 -1.34 11 -1 11 C-0.67 7.37 -0.34 3.74 0 0 Z " fill="#80807F" transform="translate(467,164)"/>
<path d="M0 0 C0.99 0.33 1.98 0.66 3 1 C3 2.98 3 4.96 3 7 C-0.3 6.34 -3.6 5.68 -7 5 C-7 3.68 -7 2.36 -7 1 C-4.69 1.33 -2.38 1.66 0 2 C0 1.34 0 0.68 0 0 Z " fill="#F0EEED" transform="translate(330,171)"/>
<path d="M0 0 C0.66 0 1.32 0 2 0 C2 5.94 2 11.88 2 18 C3.32 18 4.64 18 6 18 C6 18.66 6 19.32 6 20 C4.02 20 2.04 20 0 20 C0 13.4 0 6.8 0 0 Z " fill="#686868" transform="translate(295,164)"/>
<path d="M0 0 C3.61897173 -0.32899743 5.39503139 -0.44576634 8.375 1.75 C10 4 10 4 10 8 C6.04 8 2.08 8 -2 8 C-2.33 8.66 -2.66 9.32 -3 10 C-2.67 8.68 -2.34 7.36 -2 6 C1.3 6.33 4.6 6.66 8 7 C7.34 5.68 6.68 4.36 6 3 C2.94091587 2.18415432 2.94091587 2.18415432 0 2 C0 2.66 0 3.32 0 4 C-0.66 4 -1.32 4 -2 4 C-1.34 2.68 -0.68 1.36 0 0 Z " fill="#646466" transform="translate(493,170)"/>
<path d="M0 0 C0.33 0 0.66 0 1 0 C0.12738032 8.55167286 -3.30854621 14.96281931 -8 22 C-8.66 22 -9.32 22 -10 22 C-8.20248446 17.27915654 -6.03862628 12.74793489 -3.875 8.1875 C-3.50246094 7.39923828 -3.12992188 6.61097656 -2.74609375 5.79882812 C-1.83204476 3.86526295 -0.91620158 1.93254612 0 0 Z " fill="#4AD6BE" transform="translate(176,123)"/>
<path d="M0 0 C0.66 0 1.32 0 2 0 C2 3.3 2 6.6 2 10 C2.66 10 3.32 10 4 10 C3.34 13.3 2.68 16.6 2 20 C1.34 20 0.68 20 0 20 C0 13.4 0 6.8 0 0 Z " fill="#646564" transform="translate(357,165)"/>
<path d="M0 0 C0.33 0.66 0.66 1.32 1 2 C-2.14480095 7.16192076 -5.9303009 11.16943929 -10.25 15.375 C-10.8996875 16.01566406 -11.549375 16.65632813 -12.21875 17.31640625 C-13.80800885 18.88229364 -15.40176417 20.44328509 -17 22 C-17.66 21.67 -18.32 21.34 -19 21 C-17.82244141 19.85724609 -17.82244141 19.85724609 -16.62109375 18.69140625 C-10.59052167 12.78367204 -4.93634655 6.88307477 0 0 Z " fill="#3DBDCE" transform="translate(155,128)"/>
<path d="M0 0 C0 3.31246505 -0.55697235 4.36108136 -2.25 7.125 C-2.87648437 8.18074219 -2.87648437 8.18074219 -3.515625 9.2578125 C-5.29733403 11.34897626 -6.3647743 11.48236638 -9 12 C-11.22977996 13.97901574 -11.22977996 13.97901574 -13 16 C-13.66 15.67 -14.32 15.34 -15 15 C-10.05 10.05 -5.1 5.1 0 0 Z " fill="#3C76AF" transform="translate(186,57)"/>
<path d="M0 0 C3.63 0 7.26 0 11 0 C10.67 1.32 10.34 2.64 10 4 C10 3.34 10 2.68 10 2 C9.443125 2.515625 8.88625 3.03125 8.3125 3.5625 C6 5 6 5 3.25 4.6875 C2.5075 4.460625 1.765 4.23375 1 4 C0.67 2.68 0.34 1.36 0 0 Z " fill="#E2E0DF" transform="translate(492,178)"/>
<path d="M0 0 C3.875 1.875 3.875 1.875 5 3 C5.58230683 10.10414334 5.58230683 10.10414334 3.375 13.5 C0.39901677 15.37956836 -1.54330418 15.31424507 -5 15 C-5 14.67 -5 14.34 -5 14 C-3.35 14 -1.7 14 0 14 C2.09972674 10.58794404 2.33083127 7.9699753 2 4 C1.10168984 1.69769234 1.10168984 1.69769234 0 0 Z " fill="#747576" transform="translate(399,170)"/>
<path d="M0 0 C3.96 0 7.92 0 12 0 C11 3 11 3 9.3125 4.25 C6.26772958 5.23749311 4.08088616 4.7002014 1 4 C0.67 2.68 0.34 1.36 0 0 Z " fill="#E0DFDD" transform="translate(305,178)"/>
<path d="M0 0 C0 2.1875 0 2.1875 -1 5 C-4.40174626 7.82207649 -7.52100274 10 -12 10 C-11.505 9.566875 -11.01 9.13375 -10.5 8.6875 C-8.66781808 7.00259517 -8.66781808 7.00259517 -9 4 C-2.25 0 -2.25 0 0 0 Z " fill="#95B4D4" transform="translate(193,50)"/>
<path d="M0 0 C3.31152874 -0.36794764 4.60609252 -0.29809215 7.3125 1.75 C9 4 9 4 9 8 C5.04 8 1.08 8 -3 8 C-3 7.67 -3 7.34 -3 7 C-0.03 7 2.94 7 6 7 C5.34 5.68 4.68 4.36 4 3 C1.44480079 2.18828772 1.44480079 2.18828772 -1 2 C-0.67 1.34 -0.34 0.68 0 0 Z " fill="#676768" transform="translate(308,170)"/>
<path d="M0 0 C3.25 -0.3125 3.25 -0.3125 7 0 C9.5 2.1875 9.5 2.1875 11 5 C10.75 7.8125 10.75 7.8125 10 10 C9.67 10 9.34 10 9 10 C8.5359375 8.5459375 8.5359375 8.5459375 8.0625 7.0625 C7.30476658 4.15934208 7.30476658 4.15934208 6 3 C2.36805359 2.80850919 2.36805359 2.80850919 -1 4 C-0.67 2.68 -0.34 1.36 0 0 Z " fill="#676668" transform="translate(260,170)"/>
<path d="M0 0 C0 0.66 0 1.32 0 2 C-1.65 2.33 -3.3 2.66 -5 3 C-5.33 5.31 -5.66 7.62 -6 10 C-6.99 10.33 -7.98 10.66 -9 11 C-9.36180905 3.64321608 -9.36180905 3.64321608 -7.875 1 C-5.21065116 -0.42098605 -2.96508915 -0.19767261 0 0 Z " fill="#646464" transform="translate(481,170)"/>
<path d="M0 0 C0.66 0.66 1.32 1.32 2 2 C0.35 6.62 -1.3 11.24 -3 16 C-3.99 16 -4.98 16 -6 16 C-4.27933894 10.55123997 -2.15294651 5.28830549 0 0 Z " fill="#CAE1E9" transform="translate(189,59)"/>
<path d="M0 0 C-1.13819851 3.41459553 -2.24005518 4.3324158 -4.9375 6.625 C-5.64777344 7.23601563 -6.35804688 7.84703125 -7.08984375 8.4765625 C-9 10 -9 10 -11 11 C-11.33 9.68 -11.66 8.36 -12 7 C-10.3790787 5.82767315 -8.75313167 4.6622923 -7.125 3.5 C-6.22007812 2.8503125 -5.31515625 2.200625 -4.3828125 1.53125 C-2 0 -2 0 0 0 Z " fill="#3E74AD" transform="translate(185,55)"/>
<path d="M0 0 C1.32 0.33 2.64 0.66 4 1 C3.01 1 2.02 1 1 1 C1 4.63 1 8.26 1 12 C0.01 12.33 -0.98 12.66 -2 13 C-2.05447047 11.58376784 -2.09300508 10.16691809 -2.125 8.75 C-2.14820313 7.96109375 -2.17140625 7.1721875 -2.1953125 6.359375 C-1.9828378 3.79268059 -1.28654105 2.2083933 0 0 Z " fill="#888888" transform="translate(250,172)"/>
<path d="M0 0 C0.66 0 1.32 0 2 0 C0.125 3.875 0.125 3.875 -1 5 C-1.15714654 6.63256758 -1.25085414 8.27135338 -1.31640625 9.91015625 C-1.35830078 10.89951172 -1.40019531 11.88886719 -1.44335938 12.90820312 C-1.48267578 13.94912109 -1.52199219 14.99003906 -1.5625 16.0625 C-1.60568359 17.10728516 -1.64886719 18.15207031 -1.69335938 19.22851562 C-1.79981225 21.81886884 -1.9018276 24.40932186 -2 27 C-2.33 27 -2.66 27 -3 27 C-3.0871747 23.25014675 -3.14045003 19.50055445 -3.1875 15.75 C-3.21263672 14.68652344 -3.23777344 13.62304688 -3.26367188 12.52734375 C-3.27333984 11.50253906 -3.28300781 10.47773438 -3.29296875 9.421875 C-3.3086792 8.47924805 -3.32438965 7.53662109 -3.34057617 6.56542969 C-2.93977988 3.54638491 -2.10269958 2.17395046 0 0 Z " fill="#DDDEDF" transform="translate(410,121)"/>
<path d="M0 0 C0.99 0 1.98 0 3 0 C2.95875 1.11375 2.9175 2.2275 2.875 3.375 C2.58878141 7.04366025 2.58878141 7.04366025 5 9 C6.31747324 9.69748583 7.64914193 10.36959957 9 11 C5.625 11.1875 5.625 11.1875 2 11 C-0.67927341 6.98108988 -0.15601248 4.75838077 0 0 Z " fill="#636362" transform="translate(454,173)"/>
<path d="M0 0 C0.99 0.33 1.98 0.66 3 1 C3.9140625 3.1796875 3.9140625 3.1796875 4.625 5.875 C4.86476563 6.75929687 5.10453125 7.64359375 5.3515625 8.5546875 C5.56554687 9.36164063 5.77953125 10.16859375 6 11 C6.33 11.99 6.66 12.98 7 14 C6.01 13.67 5.02 13.34 4 13 C2.83203125 10.56640625 2.83203125 10.56640625 1.8125 7.5625 C1.46832031 6.57378906 1.12414062 5.58507812 0.76953125 4.56640625 C0 2 0 2 0 0 Z " fill="#6C6E6F" transform="translate(406,170)"/>
<path d="M0 0 C0.66 0 1.32 0 2 0 C0.25 7.625 0.25 7.625 -2 11 C-2.99 10.67 -3.98 10.34 -5 10 C-3.35 6.7 -1.7 3.4 0 0 Z " fill="#777879" transform="translate(425,170)"/>
<path d="M0 0 C1.98 0 3.96 0 6 0 C6.33 1.32 6.66 2.64 7 4 C4.36 4 1.72 4 -1 4 C-0.67 2.68 -0.34 1.36 0 0 Z " fill="#EFEDEB" transform="translate(493,172)"/>
<path d="M0 0 C1.65 0 3.3 0 5 0 C5.66 1.32 6.32 2.64 7 4 C4.03 4 1.06 4 -2 4 C-1.34 2.68 -0.68 1.36 0 0 Z " fill="#F1EFEE" transform="translate(307,172)"/>
<path d="M0 0 C0.33 0 0.66 0 1 0 C1 3.3 1 6.6 1 10 C2.32 10 3.64 10 5 10 C4.67 10.99 4.34 11.98 4 13 C2.35 13 0.7 13 -1 13 C-0.67 8.71 -0.34 4.42 0 0 Z " fill="#828484" transform="translate(287,172)"/>
<path d="M0 0 C5.75 0.75 5.75 0.75 8 3 C8.125 5.625 8.125 5.625 8 8 C5.36 8 2.72 8 0 8 C0 7.67 0 7.34 0 7 C1.98 7 3.96 7 6 7 C4.60667426 3.63279613 3.0210714 2.0140476 0 0 Z " fill="#646465" transform="translate(443,170)"/>
<path d="M0 0 C1.65 0 3.3 0 5 0 C5.33 1.32 5.66 2.64 6 4 C3.36 4 0.72 4 -2 4 C-1.34 2.68 -0.68 1.36 0 0 Z " fill="#F2F0EF" transform="translate(442,172)"/>
<path d="M0 0 C3.5625 0.125 3.5625 0.125 5.5625 1.125 C5.5625 1.785 5.5625 2.445 5.5625 3.125 C3.6753125 3.0321875 3.6753125 3.0321875 1.75 2.9375 C-1.60708979 2.88867078 -1.60708979 2.88867078 -4.4375 4.625 C-4.7675 5.12 -5.0975 5.615 -5.4375 6.125 C-4.36664125 0.15878695 -4.36664125 0.15878695 0 0 Z " fill="#747475" transform="translate(339.4375,169.875)"/>
<path d="M0 0 C4.66154042 1.49835228 5.86610751 4.88463591 8 9 C6.25 8.875 6.25 8.875 4 8 C0 2.77777778 0 2.77777778 0 0 Z " fill="#666A6B" transform="translate(364,175)"/>
<path d="M0 0 C0 2.31 0 4.62 0 7 C-0.33 6.34 -0.66 5.68 -1 5 C-5.29 5 -9.58 5 -14 5 C-14 4.67 -14 4.34 -14 4 C-10.37 4 -6.74 4 -3 4 C-3 3.01 -3 2.02 -3 1 C-1 0 -1 0 0 0 Z " fill="#CAC7C5" transform="translate(454,174)"/>
<path d="M0 0 C1.4606285 2.64738916 2 3.89448334 2 7 C0.35 7.33 -1.3 7.66 -3 8 C-2.45276317 4.62537285 -1.9451 2.91765 0 0 Z " fill="#23AED6" transform="translate(95,187)"/>
<path d="M0 0 C1.093125 0.185625 2.18625 0.37125 3.3125 0.5625 C6.93624133 1.2578068 6.93624133 1.2578068 10 0 C9.34 1.32 8.68 2.64 8 4 C5.69 3.67 3.38 3.34 1 3 C0.67 2.01 0.34 1.02 0 0 Z " fill="#7A7B7A" transform="translate(473,181)"/>
<path d="M0 0 C3.90532683 0.37793485 7.2815754 0.76052513 11 2 C7.53076119 4.31282587 6.07794425 4.42478586 2 4 C0.125 2.5 0.125 2.5 -1 1 C-0.67 0.67 -0.34 0.34 0 0 Z " fill="#737374" transform="translate(334,181)"/>
<path d="M0 0 C0.33 0 0.66 0 1 0 C1.33 2.31 1.66 4.62 2 7 C-0.55068845 9.35448165 -1.71017358 9.98327924 -5.25 10.1875 C-6.1575 10.125625 -7.065 10.06375 -8 10 C-8 9.67 -8 9.34 -8 9 C-6.35 9 -4.7 9 -3 9 C-3 8.34 -3 7.68 -3 7 C-2.34 6.67 -1.68 6.34 -1 6 C-0.34227572 2.97065509 -0.34227572 2.97065509 0 0 Z " fill="#818182" transform="translate(549,175)"/>
<path d="M0 0 C1.85776765 3.13498292 2.20140476 5.37471432 2 9 C1.34 8.67 0.68 8.34 0 8 C0 7.34 0 6.68 0 6 C-0.66 6 -1.32 6 -2 6 C-2 4.35 -2 2.7 -2 1 C-1.34 0.67 -0.68 0.34 0 0 Z " fill="#626465" transform="translate(564,170)"/>
<path d="M0 0 C0.5775 0.763125 1.155 1.52625 1.75 2.3125 C3.71703093 4.66200917 5.48476744 6.29323505 8 8 C5.125 8.1875 5.125 8.1875 2 8 C-0.1519437 4.77208445 -0.20086443 3.71599191 0 0 Z " fill="#606262" transform="translate(538,176)"/>
<path d="M0 0 C1.20628008 2.33214148 2.1654738 4.49642139 3 7 C4.65 7.33 6.3 7.66 8 8 C8 8.33 8 8.66 8 9 C5.125 9.1875 5.125 9.1875 2 9 C-0.29013653 5.5647952 -0.17842973 4.014669 0 0 Z " fill="#626463" transform="translate(391,175)"/>
<path d="M0 0 C1.4540625 0.0309375 1.4540625 0.0309375 2.9375 0.0625 C2.9375 0.7225 2.9375 1.3825 2.9375 2.0625 C1.2875 2.0625 -0.3625 2.0625 -2.0625 2.0625 C-2.0625 3.3825 -2.0625 4.7025 -2.0625 6.0625 C-1.0725 6.3925 -0.0825 6.7225 0.9375 7.0625 C-0.3825 7.0625 -1.7025 7.0625 -3.0625 7.0625 C-3.44383299 5.0710944 -3.77575582 3.06970923 -4.0625 1.0625 C-3.0625 0.0625 -3.0625 0.0625 0 0 Z " fill="#6D6E6E" transform="translate(253.0625,163.9375)"/>
<path d="M0 0 C0.33 0.99 0.66 1.98 1 3 C-0.21484375 5.04296875 -0.21484375 5.04296875 -1.9375 7.1875 C-2.50339844 7.90292969 -3.06929687 8.61835937 -3.65234375 9.35546875 C-4.09707031 9.89816406 -4.54179687 10.44085938 -5 11 C-5.33 10.01 -5.66 9.02 -6 8 C-4.78515625 5.95703125 -4.78515625 5.95703125 -3.0625 3.8125 C-2.49660156 3.09707031 -1.93070313 2.38164063 -1.34765625 1.64453125 C-0.90292969 1.10183594 -0.45820313 0.55914062 0 0 Z " fill="#33B4BF" transform="translate(162,119)"/>
<path d="M0 0 C0.33 0 0.66 0 1 0 C0.14285714 8.57142857 0.14285714 8.57142857 -2 12 C-2.66 12 -3.32 12 -4 12 C-2.66666667 8 -1.33333333 4 0 0 Z " fill="#5CD8BB" transform="translate(181,111)"/>
<path d="M0 0 C2.35953094 2.35953094 2.49141413 3.77895617 3 7 C2.01 6.67 1.02 6.34 0 6 C-0.66 6.99 -1.32 7.98 -2 9 C-2 6.69 -2 4.38 -2 2 C-1.34 2 -0.68 2 0 2 C0 1.34 0 0.68 0 0 Z " fill="#CECDCB" transform="translate(406,172)"/>
<path d="M0 0 C0.33 0 0.66 0 1 0 C1 1.98 1 3.96 1 6 C-0.98 6.99 -0.98 6.99 -3 8 C-3 6.68 -3 5.36 -3 4 C-2.34 4 -1.68 4 -1 4 C-0.67 2.68 -0.34 1.36 0 0 Z " fill="#F2F9F8" transform="translate(186,90)"/>
<path d="M0 0 C1.4540625 0.0309375 1.4540625 0.0309375 2.9375 0.0625 C2.9375 0.7225 2.9375 1.3825 2.9375 2.0625 C2.15375 2.165625 1.37 2.26875 0.5625 2.375 C-2.39295181 2.83845022 -2.39295181 2.83845022 -4.0625 6.0625 C-4.105221 4.39638095 -4.10313832 2.72867115 -4.0625 1.0625 C-3.0625 0.0625 -3.0625 0.0625 0 0 Z " fill="#606264" transform="translate(243.0625,163.9375)"/>
<path d="M0 0 C0 3.51716303 -0.82445585 4.37121748 -3 7 C-4.32 6.67 -5.64 6.34 -7 6 C-4.69 4.02 -2.38 2.04 0 0 Z " fill="#E2EBF1" transform="translate(174,79)"/>
<path d="M0 0 C-1.39332574 3.36720387 -2.9789286 4.9859524 -6 7 C-6 4 -6 4 -4.125 1.8125 C-2 0 -2 0 0 0 Z " fill="#CEDCEA" transform="translate(182,60)"/>
<path d="M0 0 C0.66 0 1.32 0 2 0 C1.34 2.64 0.68 5.28 0 8 C-1.125 6.25 -1.125 6.25 -2 4 C-1.125 1.75 -1.125 1.75 0 0 Z " fill="#747577" transform="translate(572,170)"/>
<path d="M0 0 C0.78375 0.04125 1.5675 0.0825 2.375 0.125 C-1.5 3.125 -1.5 3.125 -2.625 3.125 C-2.955 4.775 -3.285 6.425 -3.625 8.125 C-3.955 8.125 -4.285 8.125 -4.625 8.125 C-4.75 5.25 -4.75 5.25 -4.625 2.125 C-2.625 0.125 -2.625 0.125 0 0 Z " fill="#DDDBDB" transform="translate(397.625,171.875)"/>
<path d="M0 0 C0.33 0.66 0.66 1.32 1 2 C-0.65 3.98 -2.3 5.96 -4 8 C-4.66 7.67 -5.32 7.34 -6 7 C-4.02 4.69 -2.04 2.38 0 0 Z " fill="#D3DEE6" transform="translate(164,108)"/>
<path d="M0 0 C1 3 1 3 0.25 5.5625 C-1 8 -1 8 -4 10 C-2.8905928 6.51329166 -1.73662334 3.22515763 0 0 Z " fill="#4AC0B4" transform="translate(181,85)"/>
<path d="M0 0 C0.33 0 0.66 0 1 0 C0.67 2.97 0.34 5.94 0 9 C-0.66 9 -1.32 9 -2 9 C-2.20140476 5.37471432 -1.85776765 3.13498292 0 0 Z " fill="#F5FBFA" transform="translate(189,77)"/>
<path d="M0 0 C-1.36983503 3.16115776 -1.9890638 3.9927092 -5 6 C-5.66 5.34 -6.32 4.68 -7 4 C-2.25 0 -2.25 0 0 0 Z " fill="#E6EDF3" transform="translate(176,66)"/>
</svg>
